<svg width="38" height="38" viewBox="0 0 38 38" fill="none" xmlns="http://www.w3.org/2000/svg">
<path d="M1.48645 37V32.1351C1.48645 26.2241 6.27821 21.4324 12.1892 21.4324H19.9729M9.27023 37V31.1622M24.8378 8.78378C24.8378 13.0827 21.3528 16.5676 17.054 16.5676C12.7552 16.5676 9.27023 13.0827 9.27023 8.78378C9.27023 4.48492 12.7552 1 17.054 1C21.3528 1 24.8378 4.48492 24.8378 8.78378ZM27.7567 21.432C26.8692 20.2507 25.4562 19.4865 23.8648 19.4865C21.1781 19.4865 19 21.6646 19 24.3514C19 25.5569 19.4384 26.66 20.1646 27.5098L27.7567 37L35.3488 27.5098C36.0751 26.66 36.5135 25.5569 36.5135 24.3514C36.5135 21.6646 34.3354 19.4865 31.6486 19.4865C30.0572 19.4865 28.6443 20.2507 27.7567 21.432Z" stroke="#34C93F" stroke-width="2" stroke-linecap="round" stroke-linejoin="round"/>
</svg>
