<svg width="32" height="32" viewBox="0 0 32 32" fill="none" xmlns="http://www.w3.org/2000/svg">
<path d="M31.873 0.717898C31.8636 0.699006 31.8457 0.687461 31.8352 0.669619C31.7628 0.532126 31.6725 0.414576 31.5644 0.314868L31.5634 0.313818C31.534 0.293876 31.4973 0.272885 31.4605 0.253993L31.4532 0.250845C31.4311 0.235101 31.4227 0.205714 31.3986 0.19102C31.3671 0.171078 31.3283 0.177375 31.2947 0.159533C31.1572 0.0850143 30.9956 0.0335859 30.8245 0.016793H30.8192C30.7825 0.00944606 30.7363 0.00314868 30.6901 0H30.686C30.4645 0.00104956 30.2567 0.0577258 30.0751 0.157434L30.0814 0.154285C30.0709 0.159533 30.0583 0.156384 30.0478 0.162682L0.661222 16.9556C0.263439 17.1855 0 17.6095 0 18.0944C0 18.6192 0.30857 19.0726 0.754633 19.2825L0.763029 19.2856L10.4956 23.7778V30.6891C10.4956 31.1855 10.7716 31.6169 11.1778 31.8394L11.1851 31.8426C11.3657 31.9423 11.5798 32 11.8086 32C12.0762 32 12.325 31.9192 12.5328 31.7817L12.5275 31.7848L18.8532 27.6338L28.0516 31.8793C28.2121 31.9549 28.4011 32 28.6005 32C29.2921 32 29.8579 31.4658 29.9082 30.7867V30.7825L32.0073 1.39381C32.0094 1.36967 31.9937 1.34973 31.9937 1.32559C31.9948 1.3088 31.9948 1.28886 31.9948 1.26892C31.9948 1.06845 31.9496 0.878481 31.8678 0.709502L31.8709 0.716849L31.873 0.717898ZM24.5712 6.31415L11.4402 21.3228L4.17515 17.9695L24.5712 6.31415ZM13.1205 28.2594V24.9879L16.0467 26.3387L13.1205 28.2594ZM27.4292 28.7012L19.3864 24.9889C19.3591 24.9743 19.3465 24.9449 19.3182 24.9312L13.9497 22.4406L29.1137 5.1082L27.4292 28.7012Z" fill="#9568F4"/>
</svg>
