<svg width="51" height="50" viewBox="0 0 51 50" fill="none" xmlns="http://www.w3.org/2000/svg">
<path d="M46.3178 26.9864L46.329 26.9969L23.012 3.94641L23.0128 3.94798C20.3851 1.31881 16.9252 -0.00215724 13.4806 2.64457e-06C10.0358 -0.00215724 6.57666 1.31871 3.94828 3.94798C1.31861 6.57627 -0.00235309 10.0363 3.14656e-06 13.4812C-0.00235309 16.9254 1.31861 20.3853 3.94828 23.0137L27.2592 46.0589L27.2529 46.0521C29.8812 48.6813 33.3404 50.0023 36.7861 50C40.2302 50.0023 43.6895 48.6813 46.3179 46.0529C48.9478 43.4237 50.2687 39.9638 50.2665 36.5189C50.2687 33.074 48.9477 29.614 46.3178 26.9864ZM16.1543 30.4862C16.1475 30.5072 16.1426 30.5268 16.1355 30.5479L6.21724 20.7424L6.21802 20.7439C4.20992 18.7343 3.21185 16.1149 3.21028 13.4812C3.21175 10.8468 4.20982 8.22809 6.21802 6.21851C8.2277 4.21041 10.8467 3.21195 13.4807 3.21048C16.1144 3.21195 18.7335 4.21041 20.7431 6.21851L20.7537 6.22912L31.038 16.3953C29.0094 16.8209 27.1777 17.5697 25.5691 18.5336C22.0878 20.6222 19.6128 23.643 17.9827 26.4737C17.1674 27.8916 16.5632 29.2667 16.1543 30.4862ZM44.0479 43.7823C42.0384 45.7897 39.4197 46.7881 36.786 46.7896C34.1511 46.7881 31.5322 45.7905 29.5225 43.7816L29.5165 43.7756L18.7751 33.1566C18.8071 32.95 18.8544 32.707 18.9232 32.4379C19.1716 31.4431 19.6721 30.1026 20.4268 28.6855C21.5583 26.5555 23.2628 24.2475 25.5152 22.467C27.7576 20.6979 30.5082 19.4342 33.9174 19.2424L44.0435 29.2523L44.0479 29.2561C46.0568 31.2657 47.0545 33.8851 47.0561 36.5188C47.0546 39.1525 46.0569 41.7719 44.0479 43.7823Z" fill="#00A9C2"/>
<path d="M7.99888 16.6216L11.5084 8.23181C10.1912 8.23181 8.95325 8.7439 8.02283 9.67462C6.10122 11.5962 6.10122 14.7239 7.99888 16.6216Z" fill="#00A9C2"/>
</svg>
