<svg width="34" height="34" viewBox="0 0 34 34" fill="none" xmlns="http://www.w3.org/2000/svg">
<path d="M10.6001 17L13.8001 14.6L10.6001 12.2" stroke="#E22222" stroke-width="2" stroke-linecap="round" stroke-linejoin="round"/>
<path d="M23.4001 17L20.2001 14.6L23.4001 12.2" stroke="#E22222" stroke-width="2" stroke-linecap="round" stroke-linejoin="round"/>
<path d="M21.8001 23.4L20.2001 21.8L18.6001 23.4L17.0001 21.8L15.4001 23.4L13.8001 21.8L12.2001 23.4" stroke="#E22222" stroke-width="2" stroke-linecap="round" stroke-linejoin="round"/>
<path d="M9 3.14051C11.3534 1.77915 14.0858 1 17 1C25.8365 1 33 8.16344 33 17C33 25.8365 25.8365 33 17 33C8.16344 33 1 25.8365 1 17C1 14.0858 1.77915 11.3534 3.14051 9" stroke="#E22222" stroke-width="2" stroke-linecap="round"/>
</svg>
