<svg width="34" height="34" viewBox="0 0 34 34" fill="none" xmlns="http://www.w3.org/2000/svg">
<path d="M17.0001 21.8C19.651 21.8 21.8001 19.651 21.8001 17C21.8001 14.349 19.651 12.2 17.0001 12.2C14.3491 12.2 12.2001 14.349 12.2001 17C12.2001 19.651 14.3491 21.8 17.0001 21.8Z" stroke="#59BDCC" stroke-width="2"/>
<path d="M19.8247 1.24358C19.2365 1 18.4911 1 17.0001 1C15.509 1 14.7636 1 14.1754 1.24358C13.3914 1.56837 12.7684 2.19133 12.4436 2.97541C12.2954 3.33334 12.2373 3.7496 12.2146 4.35678C12.1813 5.24909 11.7237 6.07502 10.9504 6.52149C10.1771 6.96794 9.23301 6.95126 8.44357 6.53402C7.90639 6.25008 7.51689 6.09219 7.13277 6.04163C6.29133 5.93085 5.44036 6.15886 4.76705 6.67552C4.26205 7.06301 3.8893 7.70864 3.1438 8.99989C2.39829 10.2912 2.02554 10.9368 1.94245 11.5679C1.83169 12.4093 2.0597 13.2603 2.57636 13.9336C2.81216 14.241 3.14359 14.4992 3.65797 14.8224C4.41415 15.2976 4.90069 16.107 4.90065 17C4.9006 17.893 4.41407 18.7022 3.65796 19.1773C3.14351 19.5006 2.81204 19.759 2.5762 20.0664C2.05954 20.7397 1.83153 21.5906 1.94231 22.432C2.02538 23.063 2.39813 23.7088 3.14364 25C3.88916 26.2912 4.26191 26.937 4.76689 27.3243C5.4402 27.841 6.29117 28.069 7.13261 27.9582C7.51669 27.9077 7.90618 27.7498 8.44333 27.4659C9.23282 27.0486 10.177 27.032 10.9503 27.4784C11.7237 27.925 12.1813 28.7509 12.2146 29.6434C12.2374 30.2504 12.2954 30.6667 12.4436 31.0246C12.7684 31.8086 13.3914 32.4317 14.1754 32.7565C14.7636 33 15.509 33 17.0001 33C18.4911 33 19.2365 33 19.8247 32.7565C20.6087 32.4317 21.2317 31.8086 21.5564 31.0246C21.7047 30.6667 21.7628 30.2504 21.7855 29.6432C21.8188 28.7509 22.2764 27.925 23.0497 27.4784C23.8229 27.0318 24.7671 27.0486 25.5567 27.4659C26.0938 27.7498 26.4833 27.9075 26.8673 27.9581C27.7087 28.069 28.5597 27.841 29.233 27.3243C29.738 26.9368 30.1108 26.2912 30.8562 24.9998C31.6018 23.7086 31.9746 23.063 32.0577 22.432C32.1684 21.5906 31.9404 20.7395 31.4237 20.0662C31.1879 19.7589 30.8564 19.5005 30.342 19.1773C29.586 18.7022 29.0994 17.8928 29.0994 16.9998C29.0994 16.1069 29.586 15.2978 30.342 14.8227C30.8565 14.4994 31.1881 14.2411 31.4239 13.9336C31.9406 13.2604 32.1686 12.4094 32.0578 11.568C31.9748 10.9369 31.602 10.2912 30.8564 9C30.111 7.70875 29.7382 7.06312 29.2332 6.67563C28.5599 6.15898 27.7089 5.93096 26.8674 6.04174C26.4834 6.0923 26.094 6.25018 25.5567 6.53408C24.7673 6.95134 23.8231 6.96803 23.0498 6.52154C22.2764 6.07506 21.8188 5.24906 21.7855 4.3567C21.7628 3.74957 21.7047 3.33333 21.5564 2.97541C21.2317 2.19133 20.6087 1.56837 19.8247 1.24358Z" stroke="#59BDCC" stroke-width="2"/>
</svg>
