<svg width="50" height="50" viewBox="0 0 50 50" fill="none" xmlns="http://www.w3.org/2000/svg">
<path fill-rule="evenodd" clip-rule="evenodd" d="M24.9999 0C25.9631 0 26.7441 0.780903 26.7441 1.74418V2.3289C27.0027 2.3328 27.2234 2.34127 27.4292 2.35948C31.6389 2.73173 34.9757 6.06865 35.348 10.2783C35.3819 10.663 35.3819 11.0989 35.3819 11.7391V14.5837C35.3819 23.582 28.5352 30.981 19.7674 31.8559V36.628C19.7674 42.0865 24.1925 46.5116 29.651 46.5116H31.7031C34.6103 46.5116 37.1503 44.9263 38.5015 42.5714C35.0468 41.4117 32.558 38.1475 32.558 34.3022C32.558 29.4857 36.4624 25.5813 41.2789 25.5813C46.0954 25.5813 49.9998 29.4857 49.9998 34.3022C49.9998 38.8149 46.5721 42.527 42.1784 42.9772C40.4863 47.097 36.4357 50 31.7031 50H29.651C22.266 50 16.279 44.0131 16.279 36.628V31.8592C7.14346 30.9817 2.94627e-05 23.2848 2.94627e-05 13.9192L6.17544e-06 11.7393C-6.35917e-05 11.099 -0.000110077 10.6631 0.033913 10.2783C0.406167 6.06865 3.74311 2.73173 7.95274 2.35948C8.31476 2.32745 8.72208 2.32562 9.30231 2.32555V1.74418C9.30231 0.780903 10.0832 0 11.0465 0C12.0098 0 12.7907 0.780903 12.7907 1.74418V6.39532C12.7907 7.35859 12.0098 8.1395 11.0465 8.1395C10.0832 8.1395 9.30231 7.35859 9.30231 6.39532V5.81397C8.68973 5.81439 8.45097 5.81737 8.25999 5.83428C5.73424 6.05762 3.73206 8.05978 3.50871 10.5856C3.49008 10.7962 3.48839 11.0651 3.48839 11.8299V13.9192C3.48839 21.9466 9.99584 28.4541 18.0232 28.4541C25.6836 28.4541 31.8936 22.2441 31.8936 14.5837V11.8299C31.8936 11.0651 31.892 10.7962 31.8731 10.5856C31.6499 8.05978 29.6478 6.05762 27.122 5.83428C27.0236 5.82555 26.9124 5.82055 26.7441 5.81769V6.39532C26.7441 7.35859 25.9631 8.1395 24.9999 8.1395C24.0366 8.1395 23.2557 7.35859 23.2557 6.39532V1.74418C23.2557 0.780903 24.0366 0 24.9999 0ZM36.0464 34.3022C36.0464 31.4124 38.3891 29.0696 41.2789 29.0696C44.1686 29.0696 46.5114 31.4124 46.5114 34.3022C46.5114 37.1919 44.1686 39.5347 41.2789 39.5347C38.3891 39.5347 36.0464 37.1919 36.0464 34.3022Z" fill="#D6C731"/>
</svg>
